# xmcd CD database file
#
# Track frame offsets:
#	150
#	25945
#	54312
#	74585
#	94488
#	121507
#	136873
#	161858
#	177038
#	205250
#	221112
#
# Disc length: 3318 seconds
#
# Revision: 1
# Processed by: cddbd v1.5.2PL0 Copyright (c) Steve Scherf et al.
# Submitted via: CDex 1.77
#
DISCID=9e0cf40b
DTITLE=Paco de Lucia - The very best Of - CD1
DYEAR=2015
DGENRE=Jazz
TTITLE0=Rodrigo: Concierto De Aranjuez, Allegro Con Spirito
TTITLE1=Solo Quiero Caminar
TTITLE2=Rio Ancho
TTITLE3=Cositas Buenas (Tangos)
TTITLE4=Entre Dos Aguas
TTITLE5=Punta Umbria
TTITLE6=Volar (Buleria)
TTITLE7=Guajiras De Lucia
TTITLE8=Zyryab
TTITLE9=Malaguena
TTITLE10=Manha De Carnaval
EXTD=YEAR: 2015
EXTT0=
EXTT1=
EXTT2=
EXTT3=
EXTT4=
EXTT5=
EXTT6=
EXTT7=
EXTT8=
EXTT9=
EXTT10=
PLAYORDER=
